<svg width="97" height="91" viewBox="0 0 97 91" fill="none" xmlns="http://www.w3.org/2000/svg">
<path d="M8.12609 32C5.64609 32 3.24609 32 0.846094 32V4C3.24609 4 5.64609 4 8.12609 4V14.6H8.64609C15.8061 14.6 15.4461 9.24 15.4461 4C17.8861 4 20.3261 4 22.8061 4C22.8061 9.72 22.9661 15 17.4061 18.56L25.0061 30.88V32H17.0461L10.8861 21.16C9.92609 21.32 9.04609 21.32 8.12609 21.32V32ZM37.4464 25.72H41.0064C41.0064 28.08 41.0064 29.56 41.0064 32C36.2464 32 31.5664 32 26.8064 32C26.8064 29.56 26.8064 28.08 26.8064 25.72H30.3664V10.24H27.0864C27.0864 7.84 27.0864 6.36 27.0864 4C31.6464 4 36.1664 4 40.7264 4C40.7264 6.36 40.7264 7.84 40.7264 10.24H37.4464V25.72ZM56.2489 4C74.4889 4.08 74.4889 31.92 56.2489 32H45.6889V4H56.2489ZM52.8489 10.52V25.48H56.2489C65.1689 25.48 65.1689 10.52 56.2489 10.52H52.8489ZM80.3364 23.44C80.3364 27 89.0964 26.92 89.0964 23.64C89.0964 21.68 86.7764 21.36 83.9764 21.2C77.8964 20.76 73.8964 18.68 73.8164 12.6C73.5764 0.519998 95.3364 0.519998 95.1764 12.6C92.6564 12.6 90.8164 12.6 88.3764 12.6C88.3764 8.88 80.8564 9.2 80.6164 12.52C80.4564 14.64 82.5364 15.08 85.0564 15.36C90.6164 15.96 96.0564 16.68 96.0564 23.68C96.0564 35.44 73.2564 35.76 73.4164 23.44C75.8164 23.44 77.8964 23.44 80.3364 23.44Z" fill="black"/>
<path d="M24.6745 50.864C24.6745 53 29.9305 52.952 29.9305 50.984C29.9305 49.808 28.5385 49.616 26.8585 49.52C23.2105 49.256 20.8105 48.008 20.7625 44.36C20.6185 37.112 33.6745 37.112 33.5785 44.36C32.0665 44.36 30.9625 44.36 29.4985 44.36C29.4985 42.128 24.9865 42.32 24.8425 44.312C24.7465 45.584 25.9945 45.848 27.5065 46.016C30.8425 46.376 34.1065 46.808 34.1065 51.008C34.1065 58.064 20.4265 58.256 20.5225 50.864C21.9625 50.864 23.2105 50.864 24.6745 50.864ZM42.253 52.232H44.389C44.389 53.648 44.389 54.536 44.389 56C41.533 56 38.725 56 35.869 56C35.869 54.536 35.869 53.648 35.869 52.232H38.005V42.944H36.037C36.037 41.504 36.037 40.616 36.037 39.2C38.773 39.2 41.485 39.2 44.221 39.2C44.221 40.616 44.221 41.504 44.221 42.944H42.253V52.232ZM50.0221 43.04H45.8941C45.8941 41.744 45.8941 40.472 45.8941 39.2H58.3741C58.3741 40.472 58.3741 41.744 58.3741 43.04H54.2701V56C52.8541 56 51.4381 56 50.0221 56V43.04ZM69.5806 48.944V56H65.3326V48.944L59.6926 39.848V39.2H64.3246L67.3726 44.792H67.5406L70.5886 39.2H75.2446V39.848L69.5806 48.944ZM22.718 69.8H17.558C17.558 68.18 17.558 66.59 17.558 65H33.158C33.158 66.59 33.158 68.18 33.158 69.8H28.028V86C26.258 86 24.488 86 22.718 86V69.8ZM56.7237 75.53C56.7237 90.08 35.1837 90.08 35.1837 75.53C35.1837 61.01 56.7237 61.01 56.7237 75.53ZM40.7037 75.53C40.7037 83.15 51.2337 83.15 51.2337 75.53C51.2337 67.97 40.7037 67.97 40.7037 75.53ZM70.7208 77.18V86H65.4108V77.18L58.3608 65.81V65H64.1508L67.9608 71.99H68.1708L71.9808 65H77.8008V65.81L70.7208 77.18Z" fill="#FA3C3C"/>
</svg>
